<?xml version="1.0" standalone="no"?><!DOCTYPE svg PUBLIC "-//W3C//DTD SVG 1.1//EN"  "http://www.w3.org/Graphics/SVG/1.1/DTD/svg11.dtd"><svg width="2318" height="1100" version="1.1" xmlns="http://www.w3.org/2000/svg"><title>Krona (snapshot) - SRR6767632 (Arabidopsis thaliana)</title><defs> <style type="text/css"> text {font-size: 14px; font-family: sans-serif; dominant-baseline:central} path {stroke-width:0.35000000000000003;} path.wedge {stroke:none} path.line {fill:none;stroke:black;} line {stroke:black;stroke-width:0.35000000000000003;} line.tick {stroke-width:0.7000000000000001;} line.pattern {stroke-width:0.23333333333333334;} circle {fill:none;stroke:black;stroke-width:0.35000000000000003;} rect {stroke:black;stroke-width:0.35000000000000003;} .highlight {stroke:black;stroke-width:1.75;} .searchHighlight {fill:rgb(255, 255, 100);stroke:none;} </style><pattern id="hiddenPattern" patternUnits="userSpaceOnUse" x="0" y="0" width="8.4" height="8.4"><line class="pattern" x1="0" y1="0" x2="4.2" y2="4.2"/><line class="pattern" x1="4.2" y1="8.4" x2="8.4" y2="4.2"/></pattern></defs><path class="wedge" fill="rgb(207,111,111)" d=" M 1084,660 L 1084,990 A 440,440 0 1,1 1504.000688008655,418.85343286133514 L 1189.0001720021637,517.2133582153338 A 110,110 0 1 0 1084,660 Z "/><path class="wedge" fill="rgb(111,207,207)" d=" M 1189.0001720021637,517.2133582153338 L 1504.000688008655,418.85343286133514 A 440,440 0 0,1 1083.9980365962824,989.9999999956194 L 1083.9995091490707,659.9999999989049 A 110,110 0 0 0 1189.0001720021637,517.2133582153338 Z "/><path class="wedge" fill="rgb(111,207,207)" d=" M 1083.999229412377,738.1538694449112 L 1083.9981979719303,989.99999999631 A 440,440 0 0,1 1083.9980365962824,989.9999999956194 L 1083.9991604045301,738.1538694446159 A 188.15386944648918,188.15386944648918 0 0 0 1083.999229412377,738.1538694449112 Z "/><path class="wedge" fill="rgb(121,210,210)" d=" M 1263.6017150432185,493.91878620053734 L 1504.000688008655,418.85343286133514 A 440,440 0 0,1 1084.3139562966155,989.9998879902628 L 1084.1342547546485,738.1538215486131 A 188.15386944648918,188.15386944648918 0 0 0 1263.6017150432185,493.91878620053734 Z "/><path class="wedge" fill="rgb(121,210,210)" d=" M 1100.2429374478443,786.0352961609143 L 1114.207473370553,988.961853186091 A 440,440 0 0,1 1084.3139562966155,989.9998879902628 L 1084.1688182399344,786.5934604994545 A 236.59352072849563,236.59352072849563 0 0 0 1100.2429374478443,786.0352961609143 Z "/><path class="wedge" fill="rgb(130,213,213)" d=" M 1309.8396397371775,479.4808453391074 L 1504.000688008655,418.85343286133514 A 440,440 0 0,1 1114.2125447077096,988.96150416897 L 1100.2456643694638,786.0351084900292 A 236.59352072849563,236.59352072849563 0 0 0 1309.8396397371775,479.4808453391074 Z "/><path class="wedge" fill="rgb(130,213,213)" d=" M 1309.8396397371775,479.4808453391074 L 1504.000688008655,418.85343286133514 A 440,440 0 0,1 1114.2125447077096,988.96150416897 L 1100.2456643694638,786.0351084900292 A 236.59352072849563,236.59352072849563 0 0 0 1309.8396397371775,479.4808453391074 Z "/><path class="wedge" fill="rgb(130,213,213)" d=" M 1309.8396397371775,479.4808453391074 L 1504.000688008655,418.85343286133514 A 440,440 0 0,1 1114.2125447077096,988.96150416897 L 1100.2456643694638,786.0351084900292 A 236.59352072849563,236.59352072849563 0 0 0 1309.8396397371775,479.4808453391074 Z "/><path class="wedge" fill="rgb(130,213,213)" d=" M 1309.8396397371775,479.4808453391074 L 1504.000688008655,418.85343286133514 A 440,440 0 0,1 1114.2125447077096,988.96150416897 L 1100.2456643694638,786.0351084900292 A 236.59352072849563,236.59352072849563 0 0 0 1309.8396397371775,479.4808453391074 Z "/><path class="wedge" fill="rgb(130,213,213)" d=" M 1309.8396397371775,479.4808453391074 L 1504.000688008655,418.85343286133514 A 440,440 0 0,1 1114.2125447077096,988.96150416897 L 1100.2456643694638,786.0351084900292 A 236.59352072849563,236.59352072849563 0 0 0 1309.8396397371775,479.4808453391074 Z "/><path class="wedge" fill="rgb(130,213,213)" d=" M 1309.8396397371775,479.4808453391074 L 1504.000688008655,418.85343286133514 A 440,440 0 0,1 1114.2125447077096,988.96150416897 L 1100.2456643694638,786.0351084900292 A 236.59352072849563,236.59352072849563 0 0 0 1309.8396397371775,479.4808453391074 Z "/><path class="wedge" fill="rgb(130,213,213)" d=" M 1309.8396397371775,479.4808453391074 L 1504.000688008655,418.85343286133514 A 440,440 0 0,1 1114.2125447077096,988.96150416897 L 1100.2456643694638,786.0351084900292 A 236.59352072849563,236.59352072849563 0 0 0 1309.8396397371775,479.4808453391074 Z "/><path class="wedge" fill="rgb(130,213,213)" d=" M 1309.8396397371775,479.4808453391074 L 1504.000688008655,418.85343286133514 A 440,440 0 0,1 1114.2125447077096,988.96150416897 L 1100.2456643694638,786.0351084900292 A 236.59352072849563,236.59352072849563 0 0 0 1309.8396397371775,479.4808453391074 Z "/><path class="wedge" fill="rgb(130,213,213)" d=" M 1102.5741456236497,818.779859700101 L 1114.3340409325592,988.9531250153047 A 440,440 0 0,1 1114.2125447077096,988.96150416897 L 1102.4997510325006,818.7849904250422 A 269.42088238674916,269.42088238674916 0 0 0 1102.5741456236497,818.779859700101 Z "/><path class="wedge" fill="rgb(140,216,216)" d=" M 1341.1748999234856,469.696309453427 L 1504.000688008655,418.85343286133514 A 440,440 0 0,1 1114.3340409325592,988.9531250153047 L 1102.5741456236497,818.779859700101 A 269.42088238674916,269.42088238674916 0 0 0 1341.1748999234856,469.696309453427 Z "/><path class="wedge" fill="rgb(140,216,216)" d=" M 1105.6341343257998,842.2915216336212 L 1116.4780261361548,988.7997012513788 A 440,440 0 0,1 1114.3340409325592,988.9531250153047 L 1104.205991381008,842.3937196644877 A 293.0910598891143,293.0910598891143 0 0 0 1105.6341343257998,842.2915216336212 Z "/><path class="wedge" fill="rgb(149,219,219)" d=" M 1363.7691972786681,462.64116735570417 L 1504.000688008655,418.85343286133514 A 440,440 0 0,1 1116.4785625875404,988.7996615452741 L 1105.6344916646754,842.2914951847479 A 293.0910598891143,293.0910598891143 0 0 0 1363.7691972786681,462.64116735570417 Z "/><path class="wedge" fill="rgb(149,219,219)" d=" M 1107.0389890831123,860.0942132033966 L 1116.6007113026087,988.7906033890927 A 440,440 0 0,1 1116.4785625875404,988.7996615452741 L 1106.9526663373645,860.100614620821 A 310.94889625178826,310.94889625178826 0 0 0 1107.0389890831123,860.0942132033966 Z "/><path class="wedge" fill="rgb(159,223,223)" d=" M 1380.8153417301887,457.31845386595705 L 1504.000688008655,418.85343286133514 A 440,440 0 0,1 1116.6007113026087,988.7906033890927 L 1107.0389890831123,860.0942132033966 A 310.94889625178826,310.94889625178826 0 0 0 1380.8153417301887,457.31845386595705 Z "/><path class="wedge" fill="rgb(159,223,223)" d=" M 1380.8153417301887,457.31845386595705 L 1504.000688008655,418.85343286133514 A 440,440 0 0,1 1116.6007113026087,988.7906033890927 L 1107.0389890831123,860.0942132033966 A 310.94889625178826,310.94889625178826 0 0 0 1380.8153417301887,457.31845386595705 Z "/><path class="wedge" fill="rgb(159,223,223)" d=" M 1112.2146944877027,873.6658019833544 L 1122.2109070674246,988.3376855588447 A 440,440 0 0,1 1116.6007113026087,988.7906033890927 L 1108.0721610680907,874.0002336728699 A 324.8932445566733,324.8932445566733 0 0 0 1112.2146944877027,873.6658019833544 Z "/><path class="wedge" fill="rgb(168,226,226)" d=" M 1394.1258778253796,453.1621961132945 L 1504.000688008655,418.85343286133514 A 440,440 0 0,1 1122.2165070790277,988.3371973568735 L 1112.2188295012008,873.665441498076 A 324.8932445566733,324.8932445566733 0 0 0 1394.1258778253796,453.1621961132945 Z "/><path class="wedge" fill="rgb(168,226,226)" d=" M 1117.628311291384,884.3929534769763 L 1128.026641631616,987.7917939233687 A 440,440 0 0,1 1122.2165070790277,988.3371973568735 L 1113.1904299055152,884.8095420642858 A 336.0796195180028,336.0796195180028 0 0 0 1117.628311291384,884.3929534769763 Z "/><path class="wedge" fill="rgb(178,229,229)" d=" M 1404.8037986892004,449.8279809430575 L 1504.000688008655,418.85343286133514 A 440,440 0 0,1 1128.0271768507835,987.7917400985882 L 1117.6287201010525,884.392912364677 A 336.0796195180028,336.0796195180028 0 0 0 1404.8037986892004,449.8279809430575 Z "/><path class="wedge" fill="rgb(178,229,229)" d=" M 1119.520999753935,893.4184074097668 L 1129.2692683053988,987.6650469789583 A 440,440 0 0,1 1128.0271768507835,987.7917400985882 L 1118.5463798427822,893.5178184769136 A 345.2505524562989,345.2505524562989 0 0 0 1119.520999753935,893.4184074097668 Z "/><path class="wedge" fill="rgb(178,229,229)" d=" M 1413.5578853795769,447.0944891877929 L 1504.000688008655,418.85343286133514 A 440,440 0 0,1 1129.2692683053988,987.6650469789583 L 1119.520999753935,893.4184074097668 A 345.2505524562989,345.2505524562989 0 0 0 1413.5578853795769,447.0944891877929 Z "/><path class="wedge" fill="rgb(178,229,229)" d=" M 1122.5645559965722,900.7911026589472 L 1132.0821359536385,987.364959961513 A 440,440 0 0,1 1129.2692683053988,987.6650469789583 L 1120.3084791859228,901.0317891916603 A 352.9045518038735,352.9045518038735 0 0 0 1122.5645559965722,900.7911026589472 Z "/><path class="wedge" fill="rgb(178,229,229)" d=" M 1420.8639876341203,444.81313523480196 L 1504.000688008655,418.85343286133514 A 440,440 0 0,1 1132.0821359536385,987.364959961513 L 1122.5645559965722,900.7911026589472 A 352.9045518038735,352.9045518038735 0 0 0 1420.8639876341203,444.81313523480196 Z "/><path class="wedge" fill="rgb(178,229,229)" d=" M 1195.9329377428319,891.5130239781641 L 1221.0396829415238,968.1149666052229 A 440,440 0 0,1 1132.0821359536385,987.364959961513 L 1123.2731113697741,907.2362675062375 A 359.38854753379496,359.38854753379496 0 0 0 1195.9329377428319,891.5130239781641 Z "/><path class="wedge" fill="rgb(178,229,229)" d=" M 1427.053266424148,442.8805130045271 L 1504.000688008655,418.85343286133514 A 440,440 0 0,1 1221.5414188187422,967.9501861577853 L 1196.3427516704662,891.3784326016493 A 359.38854753379496,359.38854753379496 0 0 0 1427.053266424148,442.8805130045271 Z "/><path class="wedge" fill="rgb(178,229,229)" d=" M 1290.4007022379078,850.9787873794978 L 1332.8449804389124,912.872120326648 A 440,440 0 0,1 1221.5414188187422,967.9501861577853 L 1198.0816478633192,896.6624553618751 A 364.9513396834356,364.9513396834356 0 0 0 1290.4007022379078,850.9787873794978 Z "/><path class="wedge" fill="rgb(178,229,229)" d=" M 1432.3632130834621,441.2224650633196 L 1504.000688008655,418.85343286133514 A 440,440 0 0,1 1332.9817328697552,912.7783024068196 L 1290.5141294716375,850.9009715260258 A 364.9513396834356,364.9513396834356 0 0 0 1432.3632130834621,441.2224650633196 Z "/><path class="wedge" fill="rgb(178,229,229)" d=" M 1365.1901016814431,790.1382567582389 L 1418.590834352706,835.7428451722984 A 440,440 0 0,1 1332.9817328697552,912.7783024068196 L 1293.2442218804676,854.8788468427153 A 369.77595330484405,369.77595330484405 0 0 0 1365.1901016814431,790.1382567582389 Z "/><path class="wedge" fill="rgb(178,229,229)" d=" M 1436.9685336297518,439.784438894642 L 1504.000688008655,418.85343286133514 A 440,440 0 0,1 1418.656115928315,835.6663859675726 L 1365.244964310657,790.0740004507015 A 369.77595330484405,369.77595330484405 0 0 0 1436.9685336297518,439.784438894642 Z "/><path class="wedge" fill="rgb(178,218,229)" d=" M 1365.244964310657,790.0740004507015 L 1418.656115928315,835.6663859675726 A 440,440 0 0,1 1418.590834352706,835.7428451722984 L 1365.1901016814431,790.1382567582389 A 369.77595330484405,369.77595330484405 0 0 0 1365.244964310657,790.0740004507015 Z "/><path class="wedge" fill="url(#hiddenPattern)" d=" M 1365.244964310657,790.0740004507015 L 1418.656115928315,835.6663859675726 A 440,440 0 0,1 1418.590834352706,835.7428451722984 L 1365.1901016814431,790.1382567582389 A 369.77595330484405,369.77595330484405 0 0 0 1365.244964310657,790.0740004507015 Z "/><path class="wedge" fill="rgb(178,215,229)" d=" M 1290.5141294716375,850.9009715260258 L 1332.9817328697552,912.7783024068196 A 440,440 0 0,1 1332.8449804389124,912.872120326648 L 1290.4007022379078,850.9787873794978 A 364.9513396834356,364.9513396834356 0 0 0 1290.5141294716375,850.9009715260258 Z "/><path class="wedge" fill="url(#hiddenPattern)" d=" M 1290.5141294716375,850.9009715260258 L 1332.9817328697552,912.7783024068196 A 440,440 0 0,1 1332.8449804389124,912.872120326648 L 1290.4007022379078,850.9787873794978 A 364.9513396834356,364.9513396834356 0 0 0 1290.5141294716375,850.9009715260258 Z "/><path class="wedge" fill="rgb(178,211,229)" d=" M 1196.3427516704662,891.3784326016493 L 1221.5414188187422,967.9501861577853 A 440,440 0 0,1 1221.0396829415238,968.1149666052229 L 1195.9329377428319,891.5130239781641 A 359.38854753379496,359.38854753379496 0 0 0 1196.3427516704662,891.3784326016493 Z "/><path class="wedge" fill="url(#hiddenPattern)" d=" M 1196.3427516704662,891.3784326016493 L 1221.5414188187422,967.9501861577853 A 440,440 0 0,1 1221.0396829415238,968.1149666052229 L 1195.9329377428319,891.5130239781641 A 359.38854753379496,359.38854753379496 0 0 0 1196.3427516704662,891.3784326016493 Z "/><path class="wedge" fill="rgb(168,202,226)" d=" M 1117.6287201010525,884.392912364677 L 1128.0271768507835,987.7917400985882 A 440,440 0 0,1 1128.026641631616,987.7917939233687 L 1117.628311291384,884.3929534769763 A 336.0796195180028,336.0796195180028 0 0 0 1117.6287201010525,884.392912364677 Z "/><path class="wedge" fill="url(#hiddenPattern)" d=" M 1117.6287201010525,884.392912364677 L 1128.0271768507835,987.7917400985882 A 440,440 0 0,1 1128.026641631616,987.7917939233687 L 1117.628311291384,884.3929534769763 A 336.0796195180028,336.0796195180028 0 0 0 1117.6287201010525,884.392912364677 Z "/><path class="wedge" fill="rgb(159,196,223)" d=" M 1112.2188295012008,873.665441498076 L 1122.2165070790277,988.3371973568735 A 440,440 0 0,1 1122.2109070674246,988.3376855588447 L 1112.2146944877027,873.6658019833544 A 324.8932445566733,324.8932445566733 0 0 0 1112.2188295012008,873.665441498076 Z "/><path class="wedge" fill="url(#hiddenPattern)" d=" M 1112.2188295012008,873.665441498076 L 1122.2165070790277,988.3371973568735 A 440,440 0 0,1 1122.2109070674246,988.3376855588447 L 1112.2146944877027,873.6658019833544 A 324.8932445566733,324.8932445566733 0 0 0 1112.2188295012008,873.665441498076 Z "/><path class="wedge" fill="rgb(140,183,216)" d=" M 1105.6344916646754,842.2914951847479 L 1116.4785625875404,988.7996615452741 A 440,440 0 0,1 1116.4780261361548,988.7997012513788 L 1105.6341343257998,842.2915216336212 A 293.0910598891143,293.0910598891143 0 0 0 1105.6344916646754,842.2914951847479 Z "/><path class="wedge" fill="url(#hiddenPattern)" d=" M 1105.6344916646754,842.2914951847479 L 1116.4785625875404,988.7996615452741 A 440,440 0 0,1 1116.4780261361548,988.7997012513788 L 1105.6341343257998,842.2915216336212 A 293.0910598891143,293.0910598891143 0 0 0 1105.6344916646754,842.2914951847479 Z "/><path class="wedge" fill="rgb(121,167,210)" d=" M 1100.2456643694638,786.0351084900292 L 1114.2125447077096,988.96150416897 A 440,440 0 0,1 1114.207473370553,988.961853186091 L 1100.2429374478443,786.0352961609143 A 236.59352072849563,236.59352072849563 0 0 0 1100.2456643694638,786.0351084900292 Z "/><path class="wedge" fill="url(#hiddenPattern)" d=" M 1100.2456643694638,786.0351084900292 L 1114.2125447077096,988.96150416897 A 440,440 0 0,1 1114.207473370553,988.961853186091 L 1100.2429374478443,786.0352961609143 A 236.59352072849563,236.59352072849563 0 0 0 1100.2456643694638,786.0351084900292 Z "/><path class="wedge" fill="rgb(111,159,207)" d=" M 1084.1342547546485,738.1538215486131 L 1084.3139562966155,989.9998879902628 A 440,440 0 0,1 1083.9981979719303,989.99999999631 L 1083.999229412377,738.1538694449112 A 188.15386944648918,188.15386944648918 0 0 0 1084.1342547546485,738.1538215486131 Z "/><path class="wedge" fill="url(#hiddenPattern)" d=" M 1084.1342547546485,738.1538215486131 L 1084.3139562966155,989.9998879902628 A 440,440 0 0,1 1083.9981979719303,989.99999999631 L 1083.999229412377,738.1538694449112 A 188.15386944648918,188.15386944648918 0 0 0 1084.1342547546485,738.1538215486131 Z "/><circle cx="1084" cy="550" r="110"/><circle cx="1084" cy="550" r="440"/><text x="1084" y="550" text-anchor="middle" style="font-color:black;font-weight:bold" transform="rotate(360,1084,550)">SRR6767632 (Arabidopsis thaliana)</text><path class="line" d=" M 1189.0001720021637,517.2133582153338 A 110,110 0 1 0 1084,660"/><line x1="1504.000688008655" y1="418.85343286133514" x2="1189.0001720021637" y2="517.2133582153338"/><text x="809" y="550" text-anchor="end" style="font-color:black;font-weight:normal" transform="rotate(36.329428887193934,1084,550)">dark matter (unidentified spots)&#160;&#160;&#160;70%</text><path class="line" d=" M 1083.9995091490707,659.9999999989049 A 110,110 0 0 0 1189.0001720021637,517.2133582153338"/><line x1="1083.9980365962824" y1="989.9999999956194" x2="1083.9995091490707" y2="659.9999999989049"/><text x="1084" y="699.0769347232446" text-anchor="middle" style="font-color:black;font-weight:normal" transform="rotate(306.32955672213313,1084,550)">cellular organisms</text><path class="line" d=" M 1084.1342547546485,738.1538215486131 A 188.15386944648918,188.15386944648918 0 0 0 1263.6017150432185,493.91878620053734"/><line x1="1084.3139562966155" y1="989.9998879902628" x2="1084.1342547546485" y2="738.1538215486131"/><text x="1084" y="752.6857648310911" text-anchor="middle" style="font-color:black;font-weight:normal" transform="rotate(306.30898755506433,1084,550)">Eukaryota</text><line x1="1114.2125447077096" y1="988.96150416897" x2="1100.2456643694638" y2="786.0351084900292"/><path class="line" d=" M 1100.2456643694638,786.0351084900292 A 236.59352072849563,236.59352072849563 0 0 0 1309.8396397371775,479.4808453391074"/><text x="1084" y="803.0072015576225" text-anchor="middle" style="font-color:black;font-weight:normal" transform="rotate(304.360776076771,1084,550)">Magnoliophyta</text><path class="line" d=" M 1102.5741456236497,818.779859700101 A 269.42088238674916,269.42088238674916 0 0 0 1341.1748999234856,469.696309453427"/><line x1="1114.3340409325592" y1="988.9531250153047" x2="1102.5741456236497" y2="818.779859700101"/><text x="1084" y="831.2559711379317" text-anchor="middle" style="font-color:black;font-weight:normal" transform="rotate(304.3528468082125,1084,550)">Mesangiospermae</text><path class="line" d=" M 1105.6344916646754,842.2914951847479 A 293.0910598891143,293.0910598891143 0 0 0 1363.7691972786681,462.64116735570417"/><line x1="1116.4785625875404" y1="988.7996615452741" x2="1105.6344916646754" y2="842.2914951847479"/><text x="1084" y="852.0199780704513" text-anchor="middle" style="font-color:black;font-weight:normal" transform="rotate(304.21286229628134,1084,550)">eudicotyledons</text><line x1="1116.6007113026087" y1="988.7906033890927" x2="1107.0389890831123" y2="860.0942132033966"/><path class="line" d=" M 1107.0389890831123,860.0942132033966 A 310.94889625178826,310.94889625178826 0 0 0 1380.8153417301887,457.31845386595705"/><path class="line" d=" M 1112.2188295012008,873.665441498076 A 324.8932445566733,324.8932445566733 0 0 0 1394.1258778253796,453.1621961132945"/><line x1="1122.2165070790277" y1="988.3371973568735" x2="1112.2188295012008" y2="873.665441498076"/><path class="line" d=" M 1117.6287201010525,884.392912364677 A 336.0796195180028,336.0796195180028 0 0 0 1404.8037986892004,449.8279809430575"/><line x1="1128.0271768507835" y1="987.7917400985882" x2="1117.6287201010525" y2="884.392912364677"/><path class="line" d=" M 1119.520999753935,893.4184074097668 A 345.2505524562989,345.2505524562989 0 0 0 1413.5578853795769,447.0944891877929"/><line x1="1129.2692683053988" y1="987.6650469789583" x2="1119.520999753935" y2="893.4184074097668"/><path class="line" d=" M 1122.5645559965722,900.7911026589472 A 352.9045518038735,352.9045518038735 0 0 0 1420.8639876341203,444.81313523480196"/><line x1="1132.0821359536385" y1="987.364959961513" x2="1122.5645559965722" y2="900.7911026589472"/><path class="line" d=" M 1196.3427516704662,891.3784326016493 A 359.38854753379496,359.38854753379496 0 0 0 1427.053266424148,442.8805130045271"/><line x1="1221.5414188187422" y1="967.9501861577853" x2="1196.3427516704662" y2="891.3784326016493"/><path class="line" d=" M 1290.5141294716375,850.9009715260258 A 364.9513396834356,364.9513396834356 0 0 0 1432.3632130834621,441.2224650633196"/><line x1="1332.9817328697552" y1="912.7783024068196" x2="1290.5141294716375" y2="850.9009715260258"/><path class="line" d=" M 1365.244964310657,790.0740004507015 A 369.77595330484405,369.77595330484405 0 0 0 1436.9685336297518,439.784438894642"/><line x1="1418.656115928315" y1="835.6663859675726" x2="1365.244964310657" y2="790.0740004507015"/><text x="1488.887976652422" y="550" text-anchor="start" style="font-color:black;font-weight:normal" transform="rotate(371.57165897451864,1084,550)">16%&#160;&#160;&#160;Arabidopsis thaliana</text><path class="line" d=" M 1365.1901016814431,790.1382567582389 A 369.77595330484405,369.77595330484405 0 0 0 1365.244964310657,790.0740004507015"/><line x1="1418.590834352706" y1="835.7428451722984" x2="1365.1901016814431" y2="790.1382567582389"/><path class="line" d=" M 1290.4007022379078,850.9787873794978 A 364.9513396834356,364.9513396834356 0 0 0 1290.5141294716375,850.9009715260258"/><line x1="1332.8449804389124" y1="912.872120326648" x2="1290.4007022379078" y2="850.9787873794978"/><path class="line" d=" M 1195.9329377428319,891.5130239781641 A 359.38854753379496,359.38854753379496 0 0 0 1196.3427516704662,891.3784326016493"/><line x1="1221.0396829415238" y1="968.1149666052229" x2="1195.9329377428319" y2="891.5130239781641"/><path class="line" d=" M 1117.628311291384,884.3929534769763 A 336.0796195180028,336.0796195180028 0 0 0 1117.6287201010525,884.392912364677"/><line x1="1128.026641631616" y1="987.7917939233687" x2="1117.628311291384" y2="884.3929534769763"/><path class="line" d=" M 1112.2146944877027,873.6658019833544 A 324.8932445566733,324.8932445566733 0 0 0 1112.2188295012008,873.665441498076"/><line x1="1122.2109070674246" y1="988.3376855588447" x2="1112.2146944877027" y2="873.6658019833544"/><path class="line" d=" M 1105.6341343257998,842.2915216336212 A 293.0910598891143,293.0910598891143 0 0 0 1105.6344916646754,842.2914951847479"/><line x1="1116.4780261361548" y1="988.7997012513788" x2="1105.6341343257998" y2="842.2915216336212"/><path class="line" d=" M 1100.2429374478443,786.0352961609143 A 236.59352072849563,236.59352072849563 0 0 0 1100.2456643694638,786.0351084900292"/><line x1="1114.207473370553" y1="988.961853186091" x2="1100.2429374478443" y2="786.0352961609143"/><path class="line" d=" M 1083.999229412377,738.1538694449112 A 188.15386944648918,188.15386944648918 0 0 0 1084.1342547546485,738.1538215486131"/><line x1="1083.9981979719303" y1="989.99999999631" x2="1083.999229412377" y2="738.1538694449112"/></svg>